<svg width="150" height="150" viewBox="0 0 150 150" fill="none" xmlns="http://www.w3.org/2000/svg">
<path d="M116.93 21.8459C105.103 15.9614 90.6306 12.5 75 12.5C59.3694 12.5 44.8969 15.9614 33.0698 21.8459C27.2699 24.7316 24.3699 26.1745 21.56 30.7111C18.75 35.2478 18.75 39.6405 18.75 48.4259V70.2319C18.75 105.753 47.1398 125.502 63.5813 133.961C68.1669 136.321 70.4594 137.5 75 137.5C79.5406 137.5 81.8331 136.321 86.4181 133.961C102.86 125.502 131.25 105.753 131.25 70.2319V48.4259C131.25 39.6406 131.25 35.2479 128.44 30.7111C125.63 26.1744 122.73 24.7316 116.93 21.8459Z" stroke="#10B935" stroke-width="8" stroke-linecap="round" stroke-linejoin="round"/>
<path d="M56.25 70.834C56.25 70.834 65.0494 72.4084 68.75 83.334C68.75 83.334 78.125 64.584 93.75 58.334" stroke="#10B935" stroke-width="8" stroke-linecap="round" stroke-linejoin="round"/>
</svg>
