<svg width="156" height="156" viewBox="0 0 156 156" fill="none" xmlns="http://www.w3.org/2000/svg">
<mask id="mask0_7_64055" style="mask-type:alpha" maskUnits="userSpaceOnUse" x="0" y="0" width="156" height="156">
<circle cx="78" cy="78" r="78" fill="#C4C4C4"/>
</mask>
<g mask="url(#mask0_7_64055)">
<g filter="url(#filter0_df_7_64055)">
<path d="M136.67 56.2948C152.609 44.8385 144.131 24.4165 144.131 24.4165C144.131 24.4165 97.3577 -66.4203 31.8789 -54.9401C-46.3978 -41.2161 -15.2603 110.895 -15.2603 110.895C-15.2603 110.895 -3.05156 85.6295 28.4876 73.9295C70.5397 58.3295 118.357 69.4573 136.67 56.2948Z" fill="#6AFD9C"/>
</g>
<g filter="url(#filter1_df_7_64055)">
<path d="M97.3309 23.0608C105.527 14.0284 90.8874 -2.374 90.8874 -2.374C90.8874 -2.374 63.0182 -62.2792 18.6525 -67.487C-52.3569 -75.8223 -29.7047 95.2573 -29.7047 95.2573C-29.7047 95.2573 -11.3257 65.6219 14.5831 49.1738C49.1282 27.243 83.4993 38.3028 97.3309 23.0608Z" fill="#A9FDC6"/>
</g>
<g filter="url(#filter2_df_7_64055)">
<path d="M59.2649 10.4867C65.1206 4.55977 52.6489 -10.7209 52.6489 -10.7209L-52.9151 -57.5419L-54.7702 79.4417C-54.7702 79.4417 -10.9011 77.955 1.01679 51.5485C20.0081 9.46925 41.1452 28.8268 59.2649 10.4867Z" fill="#DFFDEB"/>
</g>
</g>
<defs>
<filter id="filter0_df_7_64055" x="-71.373" y="-75.9434" width="267.756" height="266.838" filterUnits="userSpaceOnUse" color-interpolation-filters="sRGB">
<feFlood flood-opacity="0" result="BackgroundImageFix"/>
<feColorMatrix in="SourceAlpha" type="matrix" values="0 0 0 0 0 0 0 0 0 0 0 0 0 0 0 0 0 0 127 0" result="hardAlpha"/>
<feOffset dy="30"/>
<feGaussianBlur stdDeviation="25"/>
<feColorMatrix type="matrix" values="0 0 0 0 1 0 0 0 0 1 0 0 0 0 1 0 0 0 0.3 0"/>
<feBlend mode="normal" in2="BackgroundImageFix" result="effect1_dropShadow_7_64055"/>
<feBlend mode="normal" in="SourceGraphic" in2="effect1_dropShadow_7_64055" result="shape"/>
<feGaussianBlur stdDeviation="0.5" result="effect2_foregroundBlur_7_64055"/>
</filter>
<filter id="filter1_df_7_64055" x="-83.1406" y="-87.7812" width="232.965" height="263.039" filterUnits="userSpaceOnUse" color-interpolation-filters="sRGB">
<feFlood flood-opacity="0" result="BackgroundImageFix"/>
<feColorMatrix in="SourceAlpha" type="matrix" values="0 0 0 0 0 0 0 0 0 0 0 0 0 0 0 0 0 0 127 0" result="hardAlpha"/>
<feOffset dy="30"/>
<feGaussianBlur stdDeviation="25"/>
<feColorMatrix type="matrix" values="0 0 0 0 1 0 0 0 0 1 0 0 0 0 1 0 0 0 0.3 0"/>
<feBlend mode="normal" in2="BackgroundImageFix" result="effect1_dropShadow_7_64055"/>
<feBlend mode="normal" in="SourceGraphic" in2="effect1_dropShadow_7_64055" result="shape"/>
<feGaussianBlur stdDeviation="0.5" result="effect2_foregroundBlur_7_64055"/>
</filter>
<filter id="filter2_df_7_64055" x="-104.77" y="-77.541" width="215.598" height="236.982" filterUnits="userSpaceOnUse" color-interpolation-filters="sRGB">
<feFlood flood-opacity="0" result="BackgroundImageFix"/>
<feColorMatrix in="SourceAlpha" type="matrix" values="0 0 0 0 0 0 0 0 0 0 0 0 0 0 0 0 0 0 127 0" result="hardAlpha"/>
<feOffset dy="30"/>
<feGaussianBlur stdDeviation="25"/>
<feColorMatrix type="matrix" values="0 0 0 0 1 0 0 0 0 1 0 0 0 0 1 0 0 0 0.3 0"/>
<feBlend mode="normal" in2="BackgroundImageFix" result="effect1_dropShadow_7_64055"/>
<feBlend mode="normal" in="SourceGraphic" in2="effect1_dropShadow_7_64055" result="shape"/>
<feGaussianBlur stdDeviation="0.5" result="effect2_foregroundBlur_7_64055"/>
</filter>
</defs>
</svg>
