<svg width="20" height="20" viewBox="0 0 20 20" fill="none" xmlns="http://www.w3.org/2000/svg">
<path d="M10.2583 2.5H9.74043C7.71074 2.5 6.69588 2.5 5.86557 2.96043C5.03524 3.42086 4.54238 4.25692 3.55667 5.92905L3.06542 6.76238C2.13248 8.34492 1.66602 9.13625 1.66602 10C1.66602 10.8637 2.13248 11.6551 3.06542 13.2376L3.55667 14.0709C4.54238 15.7431 5.03524 16.5792 5.86557 17.0396C6.69588 17.5 7.71074 17.5 9.74043 17.5H10.2583C12.2879 17.5 13.3029 17.5 14.1331 17.0396C14.9634 16.5792 15.4563 15.7431 16.442 14.0709L16.9333 13.2376C17.8662 11.6551 18.3327 10.8637 18.3327 10C18.3327 9.13625 17.8662 8.34492 16.9333 6.76237L16.442 5.92905C15.4563 4.25692 14.9634 3.42086 14.1331 2.96043C13.3029 2.5 12.2879 2.5 10.2583 2.5Z" stroke="white" stroke-width="1.25" stroke-linecap="round"/>
<path d="M9.99414 13.334H10.0016" stroke="white" stroke-width="1.25" stroke-linecap="round" stroke-linejoin="round"/>
<path d="M9.99414 10.8327V6.66602" stroke="white" stroke-width="1.25" stroke-linecap="round" stroke-linejoin="round"/>
</svg>
