<svg width="20" height="20" viewBox="0 0 20 20" fill="none" xmlns="http://www.w3.org/2000/svg">
<path d="M15.8248 15.8327H15.8327M15.8248 15.8327C15.3058 16.3473 14.3654 16.2191 13.7059 16.2191C12.8964 16.2191 12.5066 16.3774 11.9288 16.9552C11.4369 17.4472 10.7774 18.3327 9.99935 18.3327C9.22127 18.3327 8.56177 17.4472 8.06982 16.9552C7.49208 16.3774 7.10226 16.2191 6.29273 16.2191C5.63325 16.2191 4.69283 16.3473 4.17392 15.8327C3.65086 15.314 3.77958 14.3697 3.77958 13.7059C3.77958 12.8672 3.59615 12.4815 2.99883 11.8842C2.1103 10.9957 1.66603 10.5513 1.66602 9.99935C1.66602 9.44727 2.11028 9.00302 2.99881 8.11449C3.53202 7.58128 3.77958 7.05292 3.77958 6.29273C3.77958 5.63322 3.65142 4.6928 4.16602 4.17388C4.68471 3.65083 5.62902 3.77957 6.29275 3.77957C7.05291 3.77957 7.58128 3.53202 8.11447 2.99882C9.00302 2.11028 9.44727 1.66602 9.99935 1.66602C10.5514 1.66602 10.9957 2.11028 11.8842 2.99882C12.4173 3.53191 12.9456 3.77957 13.7059 3.77957C14.3654 3.77957 15.3059 3.65141 15.8249 4.16602C16.3479 4.68471 16.2191 5.62901 16.2191 6.29273C16.2191 7.1315 16.4026 7.51716 16.9999 8.11449C17.8884 9.00302 18.3327 9.44727 18.3327 9.99935C18.3327 10.5513 17.8884 10.9957 16.9999 11.8842C16.4025 12.4815 16.2191 12.8672 16.2191 13.7059C16.2191 14.3697 16.3478 15.314 15.8248 15.8327Z" stroke="white" stroke-width="1.25"/>
<path d="M7.5 10.7434L9 12.0827L12.5 7.91602" stroke="white" stroke-width="1.25" stroke-linecap="round" stroke-linejoin="round"/>
</svg>
