<svg width="238" height="73" viewBox="0 0 238 73" fill="none" xmlns="http://www.w3.org/2000/svg">
<path d="M59.2738 24L54.6178 7.536H57.9538L60.9778 19.824L63.5938 7.536H66.7378L69.3538 19.824L72.4018 7.536H75.7138L71.0818 24H67.4818L65.1778 13.416L62.8498 24H59.2738ZM81.6788 24.336C77.7668 24.336 75.1748 21.792 75.1748 18C75.1748 14.208 77.7668 11.664 81.6788 11.664C85.5908 11.664 88.1828 14.208 88.1828 18V18.552L87.9428 18.792H78.1028C78.3668 20.688 79.8068 21.936 81.6788 21.936C83.0948 21.936 84.4148 21.12 84.9668 19.92H87.8948C87.1028 22.56 84.6068 24.336 81.6788 24.336ZM78.2948 16.392H85.0628C84.5108 14.904 83.2868 14.064 81.6788 14.064C80.0708 14.064 78.8468 14.904 78.2948 16.392ZM89.9048 24V7.536H92.7848V24H89.9048ZM101.015 24.336C97.1027 24.336 94.5107 21.792 94.5107 18C94.5107 14.208 97.1027 11.664 101.015 11.664C104.255 11.664 106.751 13.704 107.279 16.752H104.519C104.135 15.216 102.743 14.208 101.015 14.208C98.8307 14.208 97.3907 15.72 97.3907 18C97.3907 20.28 98.8307 21.792 101.015 21.792C102.767 21.792 104.183 20.736 104.543 19.128H107.303C106.799 22.248 104.279 24.336 101.015 24.336ZM115.054 24.336C111.142 24.336 108.55 21.792 108.55 18C108.55 14.208 111.142 11.664 115.054 11.664C118.966 11.664 121.558 14.208 121.558 18C121.558 21.792 118.966 24.336 115.054 24.336ZM115.054 21.792C117.238 21.792 118.678 20.28 118.678 18C118.678 15.72 117.238 14.208 115.054 14.208C112.87 14.208 111.43 15.72 111.43 18C111.43 20.28 112.87 21.792 115.054 21.792ZM123.045 24V12H125.925V13.08C126.645 12.168 127.701 11.664 128.853 11.664C129.957 11.664 131.229 12.24 132.045 13.104C132.885 12.24 134.325 11.664 135.645 11.664C138.501 11.664 140.421 13.248 140.421 15.624V24H137.541V15.912C137.541 14.88 136.677 14.208 135.357 14.208C134.037 14.208 133.173 14.88 133.173 15.912V24H130.293V15.912C130.293 14.88 129.429 14.208 128.109 14.208C126.789 14.208 125.925 14.88 125.925 15.912V24H123.045ZM148.429 24.336C144.517 24.336 141.925 21.792 141.925 18C141.925 14.208 144.517 11.664 148.429 11.664C152.341 11.664 154.933 14.208 154.933 18V18.552L154.693 18.792H144.853C145.117 20.688 146.557 21.936 148.429 21.936C149.845 21.936 151.165 21.12 151.717 19.92H154.645C153.853 22.56 151.357 24.336 148.429 24.336ZM145.045 16.392H151.813C151.261 14.904 150.037 14.064 148.429 14.064C146.821 14.064 145.597 14.904 145.045 16.392ZM167.424 24.336C165.024 24.336 163.44 22.968 163.44 20.928V14.4H161.52V12H163.44V7.536H166.32V12H169.344V14.4H166.32V20.928C166.32 21.528 166.752 21.936 167.376 21.936H169.464V24C169.032 24.192 168.216 24.336 167.424 24.336ZM176.788 24.336C172.876 24.336 170.284 21.792 170.284 18C170.284 14.208 172.876 11.664 176.788 11.664C180.7 11.664 183.292 14.208 183.292 18C183.292 21.792 180.7 24.336 176.788 24.336ZM176.788 21.792C178.972 21.792 180.412 20.28 180.412 18C180.412 15.72 178.972 14.208 176.788 14.208C174.604 14.208 173.164 15.72 173.164 18C173.164 20.28 174.604 21.792 176.788 21.792Z" fill="black"/>
<path d="M0 65.9068V72.9999H4.35477V65.9068C4.35477 65.8934 4.35477 65.8868 4.36129 65.8802C4.37464 64.3937 5.58097 63.1935 7.05242 63.1935H16.0137L19.9044 72.9999H24.5904L20.4147 62.4536C21.6807 61.8204 22.7281 60.8203 23.4306 59.5804C24.0272 58.5204 24.3454 57.3206 24.3454 56.0938C24.3454 53.1005 22.4496 50.4141 19.6461 49.4075C18.8905 49.1409 18.0951 49.001 17.293 49.001H0V53.3809H17.293C18.7645 53.3809 19.9773 54.5876 19.9907 56.0741V56.1207C19.9773 57.6072 18.7645 58.8074 17.293 58.8074H7.05242C6.25708 58.8074 5.45495 58.9472 4.70616 59.2139C1.90234 60.2205 0.000291052 62.9072 0.000291052 65.9071L0 65.9068Z" fill="black"/>
<path d="M59.8661 72.9997L52.4557 54.2802C51.1634 51.0337 48.1872 49.0005 44.7073 49.0005C41.2274 49.0005 38.2515 51.0337 36.9657 54.2802L29.5488 72.9997H34.2416L41.0091 55.9069C41.6387 54.3202 43.0108 53.3804 44.7076 53.3804C46.4044 53.3804 47.7765 54.3205 48.4061 55.9069L55.1801 72.9997H59.8661Z" fill="black"/>
<path d="M69.5323 59.2135C66.7285 60.2201 64.8262 62.9068 64.8262 65.9066V73H69.1809V65.8801C69.2008 64.3933 70.4071 63.1934 71.8786 63.1934H89.1719V58.8066H71.8786C71.0833 58.8066 70.2879 58.9468 69.5323 59.2135Z" fill="black"/>
<path d="M89.1722 49H64.8262V53.3799H89.1722V49Z" fill="#FFCC00"/>
<path d="M98.4895 49.0005H94.1348V72.9997H98.4895V49.0005Z" fill="black"/>
<path d="M114.684 63.1936C118.489 63.2002 122.379 65.2537 122.379 69.5134V73H126.734V69.5134C126.734 67.0202 125.912 64.6801 124.262 62.8002C123.665 62.1136 122.976 61.5135 122.227 61.0002C122.976 60.4869 123.665 59.8869 124.262 59.2003C125.912 57.3203 126.734 54.9805 126.734 52.4871V49.0005H122.379V52.4871C122.379 56.7468 118.489 58.8003 114.684 58.8069H107.837V49.0005H103.482V72.9997H107.837V63.1933H114.684V63.1936Z" fill="black"/>
<path d="M136.074 49.0005H131.719V72.9997H136.074V49.0005Z" fill="black"/>
<path d="M238 64.6626V72.3081H236.694L236.609 71.7448C235.738 72.2567 234.856 72.5128 233.962 72.5128C233.272 72.5128 232.709 72.3167 232.274 71.9241C231.838 71.5316 231.621 70.9372 231.621 70.1407V64.8333L233.08 64.6626V69.7142C233.08 70.0896 233.125 70.3882 233.216 70.61C233.306 70.8319 233.453 70.9912 233.657 71.0879C233.86 71.1847 234.143 71.233 234.505 71.233C235.048 71.233 235.727 71.0226 236.541 70.6015V64.8333L238 64.6626ZM224.647 70.3797C224.647 70.6754 224.735 70.8972 224.91 71.0451C225.085 71.193 225.348 71.2669 225.699 71.2669C226.468 71.2669 227.22 71.0394 227.956 70.5844V68.8095C226.972 68.8549 226.174 69.0085 225.563 69.2703C224.953 69.5321 224.647 69.9018 224.647 70.3797H224.647ZM226.801 64.6283C227.673 64.6283 228.326 64.8273 228.761 65.2255C229.197 65.6238 229.414 66.2496 229.414 67.1029V72.3081H228.091L228.006 71.6595C227.225 72.2285 226.326 72.5128 225.308 72.5128C224.878 72.5128 224.494 72.4303 224.154 72.2653C223.815 72.1003 223.552 71.867 223.365 71.5656C223.178 71.2641 223.085 70.9198 223.085 70.533C223.085 69.9072 223.306 69.3867 223.747 68.9714C224.188 68.556 224.776 68.2517 225.511 68.0584C226.247 67.8651 227.061 67.7569 227.955 67.7341V67.3587C227.955 66.8468 227.853 66.4739 227.649 66.2407C227.446 66.0075 227.101 65.891 226.614 65.891C225.788 65.891 224.929 66.1868 224.035 66.7783L223.39 65.7542C224.476 65.0034 225.613 64.628 226.801 64.628L226.801 64.6283ZM218.895 65.7719C218.307 65.7719 217.846 65.9484 217.512 66.3009C217.178 66.6535 216.96 67.1371 216.859 67.7515H220.558V67.6833C220.558 67.0461 220.414 66.5682 220.125 66.2498C219.837 65.9315 219.427 65.7719 218.895 65.7719H218.895ZM221.949 68.8266H216.774C216.785 69.6799 216.991 70.3 217.393 70.6868C217.795 71.0737 218.312 71.2669 218.946 71.2669C219.398 71.2669 219.791 71.2101 220.125 71.0962C220.459 70.9823 220.829 70.8062 221.236 70.5672L221.796 71.6084C220.869 72.2113 219.896 72.5128 218.878 72.5128C217.792 72.5128 216.924 72.2085 216.273 71.5998C215.623 70.9912 215.298 70.0268 215.298 68.7073C215.298 67.9565 215.434 67.2739 215.705 66.6595C215.977 66.0452 216.381 65.553 216.918 65.1833C217.456 64.8136 218.114 64.6286 218.895 64.6286C219.551 64.6286 220.111 64.7622 220.575 65.0297C221.039 65.2972 221.389 65.664 221.627 66.1305C221.864 66.597 221.983 67.1317 221.983 67.7346L221.949 68.8269V68.8266ZM213.753 64.6283C213.946 64.6283 214.121 64.6397 214.279 64.6626C214.438 64.6854 214.608 64.7194 214.788 64.765L214.517 66.2838C214.132 66.1474 213.782 66.0791 213.465 66.0791C213.103 66.0791 212.769 66.1588 212.464 66.3181C212.158 66.4774 211.864 66.7788 211.581 67.2225V72.3081H210.122V64.8161L211.581 64.6626V65.7377C211.864 65.3737 212.192 65.0976 212.566 64.9101C212.939 64.7222 213.335 64.6286 213.753 64.6286L213.753 64.6283ZM207.747 64.6626V72.3081H206.44L206.355 71.7448C205.484 72.2567 204.602 72.5128 203.708 72.5128C203.018 72.5128 202.455 72.3167 202.02 71.9241C201.584 71.5316 201.367 70.9372 201.367 70.1407V64.8333L202.826 64.6626V69.7142C202.826 70.0896 202.871 70.3882 202.962 70.61C203.052 70.8319 203.199 70.9912 203.403 71.0879C203.606 71.1847 203.889 71.233 204.251 71.233C204.794 71.233 205.473 71.0226 206.287 70.6015V64.8333L207.746 64.6626H207.747ZM195.547 71.0111C196.361 71.0111 196.95 70.8404 197.311 70.4993C197.673 70.1578 197.854 69.7199 197.854 69.1852C197.854 68.6051 197.662 68.144 197.277 67.8029C196.893 67.4614 196.322 67.291 195.563 67.291H193.103V71.0114H195.546L195.547 71.0111ZM193.103 62.5463V66.0277H195.156C195.846 66.0277 196.407 65.8827 196.836 65.5927C197.266 65.3026 197.481 64.839 197.481 64.2018C197.481 63.8832 197.402 63.5988 197.244 63.3485C197.085 63.0981 196.85 62.902 196.539 62.7598C196.228 62.6176 195.852 62.5465 195.411 62.5465H193.103V62.5463ZM197.209 66.4885C197.99 66.6818 198.567 67.0289 198.94 67.5294C199.313 68.0298 199.5 68.5931 199.5 69.2189C199.5 69.8104 199.35 70.3394 199.051 70.8059C198.751 71.2724 198.301 71.6392 197.702 71.9067C197.102 72.1742 196.372 72.3078 195.513 72.3078H191.543V61.249H195.377C196.146 61.249 196.808 61.3712 197.362 61.6159C197.917 61.8605 198.341 62.196 198.635 62.6228C198.929 63.0493 199.076 63.5415 199.076 64.099C199.076 64.6566 198.926 65.1116 198.626 65.5324C198.327 65.9535 197.854 66.2718 197.209 66.4882V66.4885ZM183.211 68.4512L185.858 72.2056V72.3081H184.178L182.295 69.4239L180.276 72.3081H178.748V72.2056L181.412 68.4681L178.867 64.9355V64.833H180.53L182.345 67.4954L184.178 64.833H185.688V64.9355L183.211 68.4509L183.211 68.4512ZM175.083 65.7719C174.495 65.7719 174.034 65.9484 173.701 66.3009C173.367 66.6535 173.149 67.1371 173.047 67.7515H176.747V67.6833C176.747 67.0461 176.602 66.5682 176.314 66.2498C176.026 65.9315 175.615 65.7719 175.084 65.7719H175.083ZM178.138 68.8266H172.962C172.974 69.6799 173.18 70.3 173.582 70.6868C173.983 71.0737 174.501 71.2669 175.134 71.2669C175.587 71.2669 175.98 71.2101 176.314 71.0962C176.647 70.9823 177.018 70.8062 177.425 70.5672L177.985 71.6084C177.058 72.2113 176.085 72.5128 175.067 72.5128C173.981 72.5128 173.113 72.2085 172.462 71.5998C171.812 70.9912 171.487 70.0268 171.487 68.7073C171.487 67.9565 171.622 67.2739 171.894 66.6595C172.165 66.0452 172.57 65.553 173.107 65.1833C173.644 64.8136 174.303 64.6286 175.084 64.6286C175.74 64.6286 176.3 64.7622 176.764 65.0297C177.227 65.2972 177.578 65.664 177.815 66.1305C178.053 66.597 178.172 67.1317 178.172 67.7346L178.138 68.8269V68.8266ZM169.942 64.6283C170.135 64.6283 170.31 64.6397 170.468 64.6626C170.627 64.6854 170.796 64.7194 170.977 64.765L170.705 66.2838C170.321 66.1474 169.97 66.0791 169.654 66.0791C169.292 66.0791 168.958 66.1588 168.652 66.3181C168.347 66.4774 168.053 66.7788 167.77 67.2225V72.3081H166.311V64.8161L167.77 64.6626V65.7377C168.053 65.3737 168.381 65.0976 168.754 64.9101C169.128 64.7222 169.524 64.6286 169.942 64.6286L169.942 64.6283ZM160.813 71.3183C162.273 71.3183 163.002 70.3968 163.002 68.5537C163.002 67.7232 162.824 67.0603 162.468 66.5656C162.112 66.0706 161.577 65.8233 160.865 65.8233C160.073 65.8233 159.504 66.0651 159.159 66.5487C158.814 67.0324 158.642 67.7007 158.642 68.554C158.642 69.4073 158.823 70.0671 159.185 70.5678C159.547 71.0685 160.09 71.3186 160.814 71.3186L160.813 71.3183ZM160.677 72.5128C159.886 72.5128 159.224 72.3392 158.692 71.9924C158.161 71.6455 157.765 71.1733 157.504 70.5758C157.244 69.9786 157.114 69.3042 157.114 68.5534C157.114 67.6433 157.284 66.895 157.623 66.3092C157.962 65.7234 158.421 65.2966 158.997 65.0294C159.574 64.7619 160.23 64.6283 160.966 64.6283C161.758 64.6283 162.419 64.8019 162.951 65.1487C163.482 65.4959 163.878 65.9649 164.139 66.5567C164.399 67.1483 164.529 67.8197 164.529 68.5705C164.529 69.4921 164.359 70.2458 164.02 70.8319C163.681 71.4177 163.222 71.8445 162.646 72.1117C162.069 72.3792 161.413 72.5128 160.677 72.5128ZM156.622 62.5805H151.311V66.3009H155.944L155.774 67.6322H151.311V72.3081H149.75V61.2493H156.622V62.5805H156.622Z" fill="black"/>
</svg>
